<svg id="Capa_1" data-name="Capa 1" xmlns="http://www.w3.org/2000/svg" viewBox="0 0 203 43.67"><defs><style>.cls-1{fill:#2e1536;}</style></defs><title>ds</title><g id="_Grupo_" data-name="&lt;Grupo&gt;"><path id="_Trazado_" data-name="&lt;Trazado&gt;" class="cls-1" d="M41.57,21.74l-.13.38a.33.33,0,0,1-.42.21L24.16,16.4a.33.33,0,1,1,.22-.63l17,5.55a.33.33,0,0,1,.2.42"/><path class="cls-1" d="M60.77,29.44a.83.83,0,0,1,.82.91c0,.88-.85,1-1.26,1a2.58,2.58,0,0,1-2.86-2.24c0-.19-.07-.31-.16-.31s-.06,0-.13.09a6.53,6.53,0,0,1-5.25,2.65c-4.1,0-7.15-3-7.16-7.53,0-4.41,3.06-7.46,7.15-7.46a6.35,6.35,0,0,1,5,2.26c.16.22.25.38.31.38s.1-.16.1-.57c0-1.6,0-3.84,0-5.66,0-2.15,0-2.68-1.26-2.68a4.27,4.27,0,0,0-.51,0h-.06a.81.81,0,0,1-.88-.82.94.94,0,0,1,1-.94l1,0c2,0,2.52,1.25,2.52,2.61v.12c0,2.65-.06,7.75-.06,12.07,0,1.6,0,3.05,0,4.28,0,1.51.53,1.89,1.22,1.89.16,0,.29,0,.41,0ZM57.31,24c0-3.53-2.33-5.83-5.32-5.82-3.19,0-5.36,2.2-5.36,5.82s2.21,5.8,5.36,5.8C55,29.79,57.31,27.49,57.31,24Z"/><path class="cls-1" d="M74.44,29.21c0-.09-.06-.15-.12-.15a.17.17,0,0,0-.13.09,5.82,5.82,0,0,1-4.78,2.43c-3.19,0-5.11-2.17-5.11-4.35,0-1.57,1-3.18,3.37-3.9A50.07,50.07,0,0,1,73.5,22c.38-.06.5-.15.5-.37s0-.35,0-.51c0-1.73-.72-3.08-3.27-3.08a5,5,0,0,0-3.69,1.51.87.87,0,0,1-.66.31.85.85,0,0,1-.88-.85c0-1.19,2.64-2.55,5.35-2.55,2.93,0,4.92,1.29,4.92,4.82,0,.28,0,.57,0,.88-.1,1-.16,2.68-.16,3.87,0,2.3.22,3.06,1.48,3.5a.8.8,0,0,1,.54.79.85.85,0,0,1-.85.88A2.69,2.69,0,0,1,74.44,29.21ZM74,24.4V24c0-.26-.09-.35-.31-.35h-.1c-4.94.79-7.56,1.42-7.56,3.62,0,1.33,1.26,2.65,3.37,2.65C71,29.91,74,29.25,74,24.4Z"/><path class="cls-1" d="M84.93,18.5c-.5,0-.5.07-.5.44,0,1.2-.1,4.45-.1,6.78s.07,4.12,2.52,4.12c.29,0,.57,0,.89-.06h.12a.79.79,0,0,1,.76.82c0,.82-.76,1-2,1-4,0-4-3.43-4-4.81,0-2,.06-5.86.06-7.41v-.5c0-.31-.09-.35-.31-.35H80.46a.83.83,0,1,1,0-1.66h1.82c.29,0,.35,0,.35-.31,0-.13,0-1.64,0-2.74V13a.92.92,0,1,1,1.83.07c0,.91-.06,3.43-.06,3.43,0,.34.06.34.47.34h2.8a.84.84,0,1,1,0,1.67Z"/><path class="cls-1" d="M101.78,29.21c0-.1-.06-.16-.12-.16a.16.16,0,0,0-.13.09,5.8,5.8,0,0,1-4.79,2.43c-3.18,0-5.1-2.17-5.1-4.34,0-1.58,1-3.19,3.37-3.91A49.8,49.8,0,0,1,100.84,22c.37-.07.5-.16.5-.38s0-.35,0-.5c0-1.74-.72-3.09-3.28-3.09a5,5,0,0,0-3.68,1.51.89.89,0,0,1-.66.32.86.86,0,0,1-.88-.85c0-1.2,2.64-2.55,5.35-2.56,2.93,0,4.91,1.3,4.91,4.82,0,.29,0,.57,0,.88-.09,1-.15,2.68-.15,3.88,0,2.3.22,3.05,1.48,3.49a.8.8,0,0,1,.53.79.85.85,0,0,1-.85.88A2.69,2.69,0,0,1,101.78,29.21Zm-.47-4.82V24c0-.25-.1-.35-.32-.35h-.09c-5,.79-7.56,1.42-7.56,3.63,0,1.32,1.26,2.64,3.37,2.64C98.32,29.9,101.31,29.24,101.31,24.39Z"/><path class="cls-1" d="M117.37,17.3c0,.66,0,1.1,0,1.57s0,.92,0,1.64v.06a.77.77,0,0,1-.79.76.81.81,0,0,1-.88-.82c0-2.52-2.8-2.52-3-2.52-1.64,0-2.55,1-2.55,2a2.42,2.42,0,0,0,1.54,2.08c.88.41,2.4,1,3.37,1.54a4.51,4.51,0,0,1,2.81,3.91c0,1.73-1.39,4.06-5,4.06a4.93,4.93,0,0,1-3.15-1,.43.43,0,0,0-.22-.13c-.06,0-.09.07-.09.16,0,.79-.38.88-.76.88a.76.76,0,0,1-.82-.75v-.06c0-.7.06-1.17.06-1.64s0-.95-.06-1.7v-.07a.83.83,0,0,1,.88-.82.82.82,0,0,1,.85.86c0,.22-.06.37-.06.59,0,1,1.58,2.08,3.37,2.08,1.61,0,3.15-.91,3.15-2.42,0-1.67-1.39-2.43-5-3.94a3.8,3.8,0,0,1-2.55-3.5c0-1.82,1.48-3.62,4.28-3.62a5,5,0,0,1,2.77.85.24.24,0,0,0,.19.06c.16,0,.13-.28.16-.37a.71.71,0,0,1,.72-.51.74.74,0,0,1,.79.76Z"/><path class="cls-1" d="M135,31.15c-.82,0-1.57-.06-2.27-.06s-1.38,0-2.11.06h-.06a.8.8,0,0,1-.85-.82.74.74,0,0,1,.85-.81c.82,0,.82-.19.82-.23a.23.23,0,0,0-.06-.12c-1.67-1.64-4.26-4-5.23-5a1.16,1.16,0,0,0-.95-.38c-.47,0-.5.29-.5,1.93,0,.75,0,1.76,0,3.27a.49.49,0,0,0,.54.54,6.26,6.26,0,0,0,.88,0h0a.85.85,0,1,1,0,1.7h0c-.82,0-1.64-.06-2.46-.06s-1.54,0-2.27.07a.82.82,0,0,1-.94-.82.86.86,0,0,1,.91-.88h0c.38,0,.44,0,.95,0a.5.5,0,0,0,.53-.54c.07-3.31.1-7.56.1-11.4,0-2.2,0-4.31,0-6,0-.88-.25-1.22-1-1.26h-.72a.85.85,0,0,1-.88-.88c0-.81.56-.91,1.67-.91,2.58,0,2.8,1.67,2.8,2.36,0,4.06-.06,10.74-.06,10.74a.47.47,0,0,0,.53.5c.35,0,.48,0,5.45-3.46.1-.06.13-.13.13-.16s-.07-.09-.22-.09c-.57,0-1.32,0-1.32-.76a.8.8,0,0,1,.84-.82h.07c.78,0,1.48,0,2.2,0s1.45,0,2.27,0a.77.77,0,0,1,.91.82.83.83,0,0,1-.88.82h0c-.44,0-.19,0-.63,0a1.49,1.49,0,0,0-.79.28c-1.86,1.26-4.28,2.9-5.82,3.91-.19.12-.25.22-.25.31s.81,1,6.52,6.21a1.17,1.17,0,0,0,.91.37c.13,0,.28,0,.47,0a.79.79,0,0,1,.89.82.85.85,0,0,1-.89.88Z"/><path class="cls-1" d="M145.47,31.56a7,7,0,0,1-7.12-7.43c0-4.6,3.3-7.62,7-7.62a5.85,5.85,0,0,1,6.2,5.16c0,1.16-.69,2-2.29,2.11-.73,0-1.8,0-3,0-2.36,0-5,0-5.73,0-.31,0-.37.13-.37.57,0,3.43,2.26,5.54,5.29,5.54a5.62,5.62,0,0,0,4.56-2.08.89.89,0,0,1,.63-.28,1,1,0,0,1,.95.91C151.64,29.16,149.43,31.56,145.47,31.56Zm-.07-13.48c-3,0-4.94,2.71-4.94,3.88,0,.31.28.31,3.93.31,1.64,0,3.4,0,4.29,0s1-.38,1-.89C149.71,20.44,148.61,18.08,145.4,18.08Z"/><path class="cls-1" d="M159.35,18.49c-.5,0-.5.06-.5.44,0,1.19-.09,4.44-.09,6.77s.06,4.12,2.52,4.12c.28,0,.56,0,.88-.06h.13a.78.78,0,0,1,.75.82c0,.82-.75,1-2,1-4,0-4-3.44-4-4.82,0-2,.06-5.86.06-7.4v-.51c0-.31-.09-.34-.31-.34h-1.86a.84.84,0,1,1,0-1.67h1.83c.28,0,.34,0,.34-.32,0-.12,0-1.63,0-2.74V13a.92.92,0,1,1,1.83.06c0,.91-.06,3.43-.06,3.43,0,.35.06.35.47.35h2.8a.84.84,0,1,1,0,1.67Z"/><path class="cls-1" d="M173.43,31.52a7.15,7.15,0,0,1-7.4-7.43c0-4.41,3.12-7.72,7.09-7.72a7.18,7.18,0,0,1,3.55.95c.07,0,.1.06.16.06s.13-.19.16-.35c0-.37.41-.53.76-.53a.81.81,0,0,1,.91.79v.06c0,.66,0,1.13,0,1.64s0,1,0,1.7v.06a.81.81,0,0,1-.91.79.84.84,0,0,1-.89-.76c0-.66.07-1-.31-1.48A4.16,4.16,0,0,0,173.34,18c-3.09,0-5.48,2.46-5.48,5.95,0,2.87,1.86,5.86,5.48,5.86a4.94,4.94,0,0,0,4-1.83,1,1,0,0,1,1.83.51C179.2,29.41,176.83,31.52,173.43,31.52Z"/><path class="cls-1" d="M197.21,31.14c-.82,0-1.64-.06-2.45-.06s-1.55,0-2.27.06a.82.82,0,0,1-1-.82.87.87,0,0,1,.92-.88h0c.41,0,.44,0,.94,0a.49.49,0,0,0,.51-.54c0-1,0-2.23,0-3.4,0-1.63,0-3.11-.07-3.71-.15-2.62-1.82-3.72-3.62-3.72-2.2,0-4.6,1.64-4.69,4.13,0,.6,0,1.54,0,2.68s0,2.55,0,4a.48.48,0,0,0,.53.53,8.43,8.43,0,0,0,.89,0,.85.85,0,1,1,0,1.7h0c-.82,0-1.67-.06-2.46-.06s-1.57,0-2.3.06a.81.81,0,0,1-.94-.82.86.86,0,0,1,.91-.88h0c.41,0,.51,0,1,0a.47.47,0,0,0,.5-.53c0-2.55.07-6.52.06-10.3,0-2.68,0-5.23,0-7.12,0-.82-.25-1.26-1.07-1.29a6.41,6.41,0,0,0-.69,0h0a.86.86,0,0,1-.89-.88c0-.54.26-.94,1.61-1a7,7,0,0,1,.79.07,2.19,2.19,0,0,1,2.14,2.39v1.8c0,2.55,0,5.38,0,5.82,0,.1,0,.16.06.16s.07,0,.13-.1a5.92,5.92,0,0,1,4.66-2.14,5,5,0,0,1,5.26,5c0,1.32.06,4.94.06,7.43,0,.35.16.57.54.57s.44,0,.88,0h0a.85.85,0,1,1,0,1.7Z"/><path id="_Trazado_compuesto_" data-name="&lt;Trazado compuesto&gt;" class="cls-1" d="M31.27,6.54h-27a.07.07,0,0,0-.06.07V7.88a.06.06,0,0,0,.06.06h.48s0,0,0,.07V24a.45.45,0,0,0,.45.45h9.15v.91a.06.06,0,0,0,.06.06h2.48l-7.24,7a.55.55,0,0,0,.39,1h.54a1,1,0,0,0,.72-.29l4.56-4.56A.68.68,0,0,1,17,29V32.4a.51.51,0,0,0,.51.51H18a.51.51,0,0,0,.51-.51V29a.68.68,0,0,1,1.16-.48l4.55,4.56a1,1,0,0,0,.72.29h.54a.55.55,0,0,0,.39-1l-7.24-7h2.48a.07.07,0,0,0,.07-.06v-.91h9.14A.45.45,0,0,0,30.8,24V8s0,0,0-.07h.48a.06.06,0,0,0,.06-.06V6.61a.07.07,0,0,0-.06-.07M30,23.71H5.51V8.33H30Z"/></g></svg>